<?xml version="1.0"?>
<svg xmlns="http://www.w3.org/2000/svg" id="Capa_1" enable-background="new 0 0 511.574 511.574" height="100px" viewBox="0 0 511.574 511.574" width="150px" class=""><g><g><path d="m325.722 138.705h-157.312c-9.058 0-17.987.899-26.682 2.622 2.081-19.417-9.309-38.43-28.527-45.204l-21.372-7.533-7.532 21.371c-6.279 17.815-.145 36.984 13.87 48.096-19.882 11.842-36.797 28.7-48.74 49.454-4.282 8.564-7.154 17.626-8.623 26.859-.772 4.851-4.502 8.701-9.299 9.756l-17.502 3.85c-4.376.963-7.19 5.235-6.346 9.635l7.528 39.257c.913 4.76 5.704 7.718 10.368 6.403l18.678-5.268c4.884-1.377 10.086.464 13.065 4.572 19.478 26.86 47.938 45.61 79.896 53.073 2.922.682 5.215 2.94 5.917 5.857l10.228 42.5c.872 3.623 4.112 6.176 7.838 6.176h21.076c3.726 0 6.967-2.553 7.838-6.176l9.31-38.682c.857-3.562 4.043-6.072 7.707-6.072h60.129c3.663 0 6.85 2.51 7.707 6.072l9.31 38.682c.872 3.623 4.112 6.176 7.838 6.176h21.076c3.726 0 6.967-2.553 7.838-6.176l9.467-39.337c.778-3.233 3.487-5.675 6.794-6.019 55.476-5.771 98.729-52.668 98.729-109.672.002-60.901-49.369-110.272-110.272-110.272z" fill="#eaaadd" data-original="#EAAADD" class=""/><g fill="#e490d0"><path d="m110.493 119.672c5.083 11.762 16.898 19.058 29.711 19.033h.272 1.441c.838-18.484-10.365-36.114-28.717-42.583l-21.371-7.532-3.139 8.906c10.079 4.542 17.664 12.599 21.803 22.176z" data-original="#E490D0" class=""/><path d="m16.297 298.004-.726.205c1.474 3.953 5.774 6.25 9.982 5.063l3.566-1.006c-3.012-3.885-8.065-5.604-12.822-4.262z" data-original="#E490D0" class=""/><path d="m171.466 365.324-9.31 38.682c-.587 2.439-2.25 4.389-4.41 5.406 1.048.493 2.211.77 3.429.77h21.076c3.726 0 6.967-2.553 7.838-6.176l9.31-38.682c.857-3.562 4.043-6.072 7.707-6.072h-27.933c-3.663 0-6.849 2.51-7.707 6.072z" data-original="#E490D0" class=""/><path d="m325.722 138.705h-27.933c60.902 0 110.273 49.371 110.273 110.273 0 57.003-43.253 103.901-98.729 109.672-3.307.344-6.016 2.786-6.794 6.019l-9.467 39.337c-.587 2.439-2.25 4.389-4.41 5.406 1.048.493 2.211.77 3.429.77h21.076c3.726 0 6.967-2.553 7.838-6.176l9.467-39.337c.778-3.233 3.487-5.675 6.794-6.019 55.476-5.771 98.729-52.668 98.729-109.672.001-60.902-49.37-110.273-110.273-110.273z" data-original="#E490D0" class=""/></g><path d="m226.449 170.664h52.747c8.286-7.31 13.52-18.001 13.52-29.919 0-22.032-17.861-39.893-39.893-39.893s-39.893 17.861-39.893 39.893c0 11.919 5.233 22.609 13.519 29.919z" fill="#f6e266" data-original="#F6E266" class=""/><path d="m252.823 100.852c-3.598 0-7.081.484-10.397 1.377 16.989 4.575 29.496 20.082 29.496 38.516 0 11.919-5.233 22.609-13.52 29.919h20.794c8.286-7.31 13.52-18.001 13.52-29.919 0-22.033-17.861-39.893-39.893-39.893z" fill="#ecbe6b" data-original="#ECBE6B" class=""/><path d="m412.474 401.986h-66.588c-5.55 0-10.049-4.499-10.049-10.049v-8.432c0-5.55 4.499-10.049 10.049-10.049h66.588c5.55 0 10.049 4.499 10.049 10.049v8.432c0 5.55-4.499 10.049-10.049 10.049z" fill="#eab14d" data-original="#EAB14D"/><path d="m411.818 373.456h-18.44c5.912 0 10.705 4.223 10.705 9.433v9.663c0 5.21-4.793 9.433-10.705 9.433h18.44c5.912 0 10.705-4.223 10.705-9.433v-9.663c0-5.209-4.793-9.433-10.705-9.433z" fill="#e49542" data-original="#E49542"/><path d="m412.474 373.456h-66.588c-5.55 0-10.049-4.499-10.049-10.049v-8.432c0-5.55 4.499-10.049 10.049-10.049h66.588c5.55 0 10.049 4.499 10.049 10.049v8.432c0 5.55-4.499 10.049-10.049 10.049z" fill="#f6e266" data-original="#F6E266" class=""/><path d="m411.818 344.927h-18.44c5.912 0 10.705 4.223 10.705 9.433v9.663c0 5.21-4.793 9.433-10.705 9.433h18.44c5.912 0 10.705-4.223 10.705-9.433v-9.663c0-5.21-4.793-9.433-10.705-9.433z" fill="#ecbe6b" data-original="#ECBE6B" class=""/><path d="m412.474 344.927h-66.588c-5.55 0-10.049-4.499-10.049-10.049v-8.432c0-5.55 4.499-10.049 10.049-10.049h66.588c5.55 0 10.049 4.499 10.049 10.049v8.432c0 5.549-4.499 10.049-10.049 10.049z" fill="#eab14d" data-original="#EAB14D"/><path d="m411.818 316.397h-18.44c5.912 0 10.705 4.223 10.705 9.433v9.663c0 5.21-4.793 9.433-10.705 9.433h18.44c5.912 0 10.705-4.223 10.705-9.433v-9.663c0-5.21-4.793-9.433-10.705-9.433z" fill="#e49542" data-original="#E49542"/><path d="m354.933 422.986h-66.588c-5.55 0-10.049-4.499-10.049-10.049v-8.432c0-5.55 4.499-10.049 10.049-10.049h66.588c5.55 0 10.049 4.499 10.049 10.049v8.432c0 5.55-4.499 10.049-10.049 10.049z" fill="#eab14d" data-original="#EAB14D"/><path d="m354.277 394.456h-18.44c5.912 0 10.705 4.223 10.705 9.433v9.663c0 5.21-4.793 9.433-10.705 9.433h18.44c5.912 0 10.705-4.223 10.705-9.433v-9.663c0-5.209-4.793-9.433-10.705-9.433z" fill="#e49542" data-original="#E49542"/><path d="m354.933 394.456h-66.588c-5.55 0-10.049-4.499-10.049-10.049v-8.432c0-5.55 4.499-10.049 10.049-10.049h66.588c5.55 0 10.049 4.499 10.049 10.049v8.432c0 5.55-4.499 10.049-10.049 10.049z" fill="#f6e266" data-original="#F6E266" class=""/><path d="m354.277 365.927h-18.44c5.912 0 10.705 4.223 10.705 9.433v9.663c0 5.21-4.793 9.433-10.705 9.433h18.44c5.912 0 10.705-4.223 10.705-9.433v-9.663c0-5.21-4.793-9.433-10.705-9.433z" fill="#ecbe6b" data-original="#ECBE6B" class=""/><path d="m354.933 365.927h-66.588c-5.55 0-10.049-4.499-10.049-10.049v-8.432c0-5.55 4.499-10.049 10.049-10.049h66.588c5.55 0 10.049 4.499 10.049 10.049v8.432c0 5.549-4.499 10.049-10.049 10.049z" fill="#eab14d" data-original="#EAB14D"/><path d="m354.277 337.397h-18.44c5.912 0 10.705 4.223 10.705 9.433v9.663c0 5.21-4.793 9.433-10.705 9.433h18.44c5.912 0 10.705-4.223 10.705-9.433v-9.663c0-5.21-4.793-9.433-10.705-9.433z" fill="#e49542" data-original="#E49542"/><path d="m334.933 337.397h-66.588c-5.55 0-10.049-4.499-10.049-10.049v-8.432c0-5.55 4.499-10.049 10.049-10.049h66.588c5.55 0 10.049 4.499 10.049 10.049v8.432c0 5.55-4.499 10.049-10.049 10.049z" fill="#f6e266" data-original="#F6E266" class=""/><path d="m334.277 308.867h-18.44c5.912 0 10.705 4.223 10.705 9.433v9.663c0 5.21-4.793 9.433-10.705 9.433h18.44c5.912 0 10.705-4.223 10.705-9.433v-9.663c0-5.21-4.793-9.433-10.705-9.433z" fill="#ecbe6b" data-original="#ECBE6B" class=""/><circle cx="274.49" cy="383.093" fill="#f6e266" r="39.893" data-original="#F6E266" class=""/><path d="m274.49 343.199c-3.26 0-6.425.4-9.458 1.138 17.465 4.248 30.435 19.983 30.435 38.756 0 18.772-12.97 34.507-30.435 38.755 3.033.738 6.198 1.138 9.458 1.138 22.032 0 39.893-17.861 39.893-39.893s-17.86-39.894-39.893-39.894z" fill="#ecbe6b" data-original="#ECBE6B" class=""/><g><path d="m109.95 217.319v-13.016c0-4.143-3.357-7.5-7.5-7.5s-7.5 3.357-7.5 7.5v13.016c0 4.143 3.357 7.5 7.5 7.5s7.5-3.357 7.5-7.5z" data-original="#000000" class="active-path"/><path d="m508.394 187.093-17.909-12.62c-11.758-8.288-28.157-5.528-36.556 6.152-7.429 10.334-6.411 24.485 2.42 33.649l6.854 7.112c8.088 8.394 14.162 18.222 18.052 29.211 1.938 5.478-.242 11.669-5.188 14.723-4.977 3.075-11.314 2.301-15.408-1.879l-17.204-17.566c-1.651-63.512-53.83-114.67-117.732-114.67h-26.471c-1.322-6.466-3.986-12.589-7.902-18.049-2.415-3.366-7.102-4.138-10.466-1.724-3.366 2.414-4.138 7.1-1.724 10.466 3.962 5.524 6.057 12.041 6.057 18.847 0 8.377-3.261 16.407-9.025 22.419h-46.735c-5.765-6.012-9.025-14.041-9.025-22.419 0-17.862 14.531-32.394 32.393-32.394 1.68 0 3.382.133 5.058.395 4.088.641 7.928-2.161 8.567-6.253s-2.16-7.928-6.253-8.567c-2.438-.381-4.919-.574-7.372-.574-22.866 0-42.001 16.277-46.428 37.854h-37.985c-6.37 0-12.765.426-19.103 1.27-1.61-19.57-14.479-36.682-33.613-43.426l-21.371-7.532c-3.909-1.378-8.19.673-9.566 4.58l-7.532 21.371c-6.029 17.104-2.375 35.854 8.976 49.364-17.695 12.215-32.54 28.288-43.273 46.938-.072.127-.142.256-.207.387-4.576 9.151-7.713 18.92-9.323 29.036-.279 1.759-1.688 3.209-3.503 3.608l-17.502 3.851c-8.406 1.85-13.721 9.92-12.101 18.372l7.528 39.256c.829 4.327 3.454 8.136 7.202 10.45s8.33 2.954 12.568 1.76l18.678-5.269c1.83-.513 3.821.19 4.958 1.757 3.328 4.59 6.992 9.056 10.891 13.271 1.479 1.599 3.49 2.408 5.509 2.408 1.821 0 3.647-.659 5.09-1.993 3.041-2.812 3.227-7.558.415-10.599-3.497-3.781-6.781-7.783-9.762-11.894-4.811-6.634-13.314-9.604-21.173-7.388l-18.679 5.269c-.215.06-.423.033-.613-.086-.191-.118-.31-.29-.352-.511l-7.531-39.256c-.079-.413.181-.808.591-.897l17.502-3.851c7.788-1.714 13.854-8.104 15.095-15.902 1.357-8.527 3.99-16.766 7.827-24.489 11.055-19.134 26.945-35.23 45.968-46.561 2.118-1.262 3.481-3.484 3.646-5.944s-.892-4.844-2.824-6.376c-11.901-9.437-16.505-25.4-11.456-39.726l5.039-14.298 14.298 5.039c15.638 5.512 25.327 20.863 23.563 37.332-.255 2.371.635 4.723 2.395 6.332 1.76 1.61 4.179 2.287 6.52 1.824 8.302-1.645 16.788-2.479 25.226-2.479h37.346c.694 5.969 2.521 11.718 5.339 16.959h-1.343c-4.143 0-7.5 3.357-7.5 7.5s3.357 7.5 7.5 7.5h86.143c4.143 0 7.5-3.357 7.5-7.5s-3.357-7.5-7.5-7.5h-1.342c2.818-5.241 4.645-10.99 5.339-16.959h25.831c56.67 0 102.773 46.104 102.773 102.773 0 21.748-6.668 42.393-19.285 59.918h-59.894c-3.175-4.544-8.435-7.529-14.387-7.529h-24.045c-4.143 0-7.5 3.357-7.5 7.5s3.357 7.5 7.5 7.5h24.045c1.405 0 2.549 1.144 2.549 2.549v8.432c0 1.405-1.144 2.549-2.549 2.549-16.036 0-49.566 0-66.588 0-1.405 0-2.549-1.144-2.549-2.549v-8.432c0-1.405 1.144-2.549 2.549-2.549h12.556c4.143 0 7.5-3.357 7.5-7.5s-3.357-7.5-7.5-7.5h-12.556c-9.677 0-17.549 7.872-17.549 17.549v8.432c0 4.746 1.901 9.052 4.973 12.214-6.466 2.791-12.186 6.984-16.787 12.191h-31.876c-7.156 0-13.324 4.859-14.999 11.817l-9.31 38.682c-.061.254-.285.431-.546.431h-21.076c-.261 0-.486-.177-.547-.431l-10.229-42.5c-1.372-5.698-5.779-10.068-11.504-11.406-15.927-3.719-30.834-10.33-44.307-19.647-3.406-2.355-8.079-1.505-10.435 1.901-2.356 3.407-1.505 8.079 1.901 10.435 15.029 10.395 31.66 17.77 49.429 21.919.168.039.295.157.331.309l10.229 42.5c1.689 7.019 7.911 11.921 15.131 11.921h21.076c7.219 0 13.44-4.902 15.13-11.921l9.31-38.682c.046-.192.217-.327.415-.327h22.895c-1.878 5.096-2.905 10.601-2.905 16.341 0 26.133 21.261 47.394 47.394 47.394 2.951 0 5.836-.285 8.639-.803 1.688.527 3.452.803 5.215.803h66.588c9.677 0 17.549-7.872 17.549-17.549v-3.451h39.992c9.677 0 17.55-7.873 17.55-17.55v-8.432c0-3.738-1.184-7.199-3.184-10.049 2-2.85 3.184-6.311 3.184-10.049v-8.432c0-3.738-1.184-7.199-3.184-10.049 2-2.85 3.184-6.312 3.184-10.05v-8.432c0-5.138-2.233-9.752-5.763-12.964 9.463-14.39 15.544-30.454 17.99-47.397l7.691 7.853c5.34 5.451 12.405 8.276 19.561 8.276 4.954 0 9.952-1.355 14.446-4.131 10.911-6.738 15.725-20.402 11.446-32.491-4.61-13.021-11.807-24.668-21.392-34.613l-6.854-7.112c-3.801-3.944-4.239-10.037-1.041-14.485 3.615-5.028 10.675-6.215 15.735-2.647l17.909 12.621c3.386 2.384 8.064 1.575 10.451-1.811 2.389-3.386 1.579-8.064-1.807-10.451zm-155.912 140.255v-3.451h59.992c1.406 0 2.55 1.144 2.55 2.549v8.432c0 1.406-1.144 2.55-2.55 2.55h-43.153c-3.174-4.545-8.436-7.53-14.388-7.53h-2.658c.122-.836.207-1.682.207-2.55zm62.542 27.628v8.432c0 1.405-1.144 2.549-2.55 2.549h-43.154c-.007-.01-.015-.02-.022-.03 2-2.85 3.184-6.312 3.184-10.05v-3.45h39.992c1.406 0 2.55 1.143 2.55 2.549zm-94.135 18.451h34.044c1.405 0 2.549 1.144 2.549 2.549v8.432c0 1.405-1.144 2.549-2.549 2.549h-33.221c.104-1.276.171-2.561.171-3.863 0-3.313-.344-6.545-.994-9.667zm34.044-28.53c1.405 0 2.549 1.144 2.549 2.549v8.432c0 1.406-1.144 2.55-2.549 2.55h-39.991c-3.23-5.279-7.467-9.875-12.438-13.53 8.615-.001 39.8-.001 52.429-.001zm-112.836 38.196c0-17.862 14.531-32.394 32.394-32.394 17.672 0 32.393 14.366 32.393 32.394 0 17.862-14.531 32.394-32.393 32.394-17.863-.001-32.394-14.532-32.394-32.394zm115.385 29.845c0 1.405-1.144 2.549-2.549 2.549h-45.895c3.697-3.941 6.731-8.509 8.918-13.53h36.976c1.405 0 2.549 1.144 2.549 2.549v8.432zm57.542-21.001c0 1.406-1.144 2.55-2.55 2.55h-43.153c-.007-.01-.015-.02-.023-.03 1.999-2.85 3.183-6.311 3.183-10.049v-3.451h39.992c1.406 0 2.55 1.144 2.55 2.549v8.431z" data-original="#000000" class="active-path"/></g></g></g> </svg>
